<mxfile host="app.diagrams.net" agent="Mozilla/5.0 (Windows NT 10.0; Win64; x64) AppleWebKit/537.36 (KHTML, like Gecko) Chrome/131.0.0.0 Safari/537.36" version="26.0.4">
  <diagram name="페이지-1" id="ZHLz8bxYrGwgKjmgsZ7p">
    <mxGraphModel dx="875" dy="435" grid="1" gridSize="10" guides="1" tooltips="1" connect="1" arrows="1" fold="1" page="1" pageScale="1" pageWidth="827" pageHeight="1169" math="0" shadow="0">
      <root>
        <mxCell id="0" />
        <mxCell id="1" parent="0" />
        <mxCell id="IaaIUEb9lgwrBOVpgSYz-1" value="사용자" style="shape=umlActor;verticalLabelPosition=bottom;verticalAlign=top;html=1;" vertex="1" parent="1">
          <mxGeometry x="20" y="730" width="30" height="60" as="geometry" />
        </mxCell>
        <mxCell id="IaaIUEb9lgwrBOVpgSYz-3" value="게시판 서비스" style="shape=umlFrame;whiteSpace=wrap;html=1;pointerEvents=0;width=90;height=30;" vertex="1" parent="1">
          <mxGeometry x="100" y="580" width="500" height="440" as="geometry" />
        </mxCell>
        <mxCell id="IaaIUEb9lgwrBOVpgSYz-8" value="회원 가입" style="rounded=1;whiteSpace=wrap;html=1;arcSize=40;fontColor=#000000;fillColor=#ffffc0;strokeColor=#ff0000;" vertex="1" parent="1">
          <mxGeometry x="125" y="720" width="110" height="30" as="geometry" />
        </mxCell>
        <mxCell id="IaaIUEb9lgwrBOVpgSYz-32" value="&amp;lt;&amp;lt;include&amp;gt;&amp;gt;" style="edgeStyle=orthogonalEdgeStyle;rounded=0;orthogonalLoop=1;jettySize=auto;html=1;dashed=1;" edge="1" parent="1" source="IaaIUEb9lgwrBOVpgSYz-10" target="IaaIUEb9lgwrBOVpgSYz-11">
          <mxGeometry relative="1" as="geometry" />
        </mxCell>
        <mxCell id="IaaIUEb9lgwrBOVpgSYz-10" value="회원 로그인&lt;span style=&quot;color: rgba(0, 0, 0, 0); font-family: monospace; font-size: 0px; text-align: start; text-wrap-mode: nowrap;&quot;&gt;%3CmxGraphModel%3E%3Croot%3E%3CmxCell%20id%3D%220%22%2F%3E%3CmxCell%20id%3D%221%22%20parent%3D%220%22%2F%3E%3CmxCell%20id%3D%222%22%20value%3D%22%ED%9A%8C%EC%9B%90%20%EA%B0%80%EC%9E%85%22%20style%3D%22rounded%3D1%3BwhiteSpace%3Dwrap%3Bhtml%3D1%3BarcSize%3D40%3BfontColor%3D%23000000%3BfillColor%3D%23ffffc0%3BstrokeColor%3D%23ff0000%3B%22%20vertex%3D%221%22%20parent%3D%221%22%3E%3CmxGeometry%20x%3D%22150%22%20y%3D%22740%22%20width%3D%22120%22%20height%3D%2240%22%20as%3D%22geometry%22%2F%3E%3C%2FmxCell%3E%3C%2Froot%3E%3C%2FmxGraphModel%3E&lt;/span&gt;" style="rounded=1;whiteSpace=wrap;html=1;arcSize=40;fontColor=#000000;fillColor=#ffffc0;strokeColor=#ff0000;" vertex="1" parent="1">
          <mxGeometry x="200" y="630" width="105" height="30" as="geometry" />
        </mxCell>
        <mxCell id="IaaIUEb9lgwrBOVpgSYz-44" style="rounded=0;orthogonalLoop=1;jettySize=auto;html=1;entryX=0;entryY=0.5;entryDx=0;entryDy=0;endArrow=none;endFill=0;" edge="1" parent="1" source="IaaIUEb9lgwrBOVpgSYz-11" target="IaaIUEb9lgwrBOVpgSYz-42">
          <mxGeometry relative="1" as="geometry" />
        </mxCell>
        <mxCell id="IaaIUEb9lgwrBOVpgSYz-11" value="인증" style="rounded=1;whiteSpace=wrap;html=1;arcSize=40;fontColor=#000000;fillColor=#ffffc0;strokeColor=#ff0000;" vertex="1" parent="1">
          <mxGeometry x="440" y="630" width="110" height="30" as="geometry" />
        </mxCell>
        <mxCell id="IaaIUEb9lgwrBOVpgSYz-37" value="&amp;lt;&amp;lt;candidate&amp;gt;&amp;gt;" style="rounded=0;orthogonalLoop=1;jettySize=auto;html=1;entryX=1;entryY=0.5;entryDx=0;entryDy=0;dashed=1;" edge="1" parent="1" source="IaaIUEb9lgwrBOVpgSYz-12" target="IaaIUEb9lgwrBOVpgSYz-10">
          <mxGeometry relative="1" as="geometry" />
        </mxCell>
        <mxCell id="IaaIUEb9lgwrBOVpgSYz-45" style="rounded=0;orthogonalLoop=1;jettySize=auto;html=1;entryX=0;entryY=0.5;entryDx=0;entryDy=0;endArrow=none;endFill=0;" edge="1" parent="1" source="IaaIUEb9lgwrBOVpgSYz-12" target="IaaIUEb9lgwrBOVpgSYz-42">
          <mxGeometry relative="1" as="geometry" />
        </mxCell>
        <mxCell id="IaaIUEb9lgwrBOVpgSYz-12" value="로그인 실패" style="rounded=1;whiteSpace=wrap;html=1;arcSize=40;fontColor=#000000;fillColor=#ffffc0;strokeColor=#ff0000;" vertex="1" parent="1">
          <mxGeometry x="440" y="690" width="110" height="30" as="geometry" />
        </mxCell>
        <mxCell id="IaaIUEb9lgwrBOVpgSYz-35" style="rounded=0;orthogonalLoop=1;jettySize=auto;html=1;exitX=1;exitY=0.5;exitDx=0;exitDy=0;dashed=1;" edge="1" parent="1" source="IaaIUEb9lgwrBOVpgSYz-13" target="IaaIUEb9lgwrBOVpgSYz-10">
          <mxGeometry relative="1" as="geometry" />
        </mxCell>
        <mxCell id="IaaIUEb9lgwrBOVpgSYz-46" style="rounded=0;orthogonalLoop=1;jettySize=auto;html=1;entryX=0;entryY=0.5;entryDx=0;entryDy=0;endArrow=none;endFill=0;" edge="1" parent="1" source="IaaIUEb9lgwrBOVpgSYz-13" target="IaaIUEb9lgwrBOVpgSYz-42">
          <mxGeometry relative="1" as="geometry" />
        </mxCell>
        <mxCell id="IaaIUEb9lgwrBOVpgSYz-13" value="게시판 보기" style="rounded=1;whiteSpace=wrap;html=1;arcSize=40;fontColor=#000000;fillColor=#ffffc0;strokeColor=#ff0000;" vertex="1" parent="1">
          <mxGeometry x="125" y="810" width="110" height="30" as="geometry" />
        </mxCell>
        <mxCell id="IaaIUEb9lgwrBOVpgSYz-38" style="rounded=0;orthogonalLoop=1;jettySize=auto;html=1;entryX=1;entryY=0.5;entryDx=0;entryDy=0;dashed=1;" edge="1" parent="1" source="IaaIUEb9lgwrBOVpgSYz-14" target="IaaIUEb9lgwrBOVpgSYz-13">
          <mxGeometry relative="1" as="geometry" />
        </mxCell>
        <mxCell id="IaaIUEb9lgwrBOVpgSYz-14" value="게시판 정렬" style="rounded=1;whiteSpace=wrap;html=1;arcSize=40;fontColor=#000000;fillColor=#ffffc0;strokeColor=#ff0000;" vertex="1" parent="1">
          <mxGeometry x="295" y="760" width="110" height="30" as="geometry" />
        </mxCell>
        <mxCell id="IaaIUEb9lgwrBOVpgSYz-39" style="rounded=0;orthogonalLoop=1;jettySize=auto;html=1;entryX=1;entryY=0.5;entryDx=0;entryDy=0;dashed=1;" edge="1" parent="1" source="IaaIUEb9lgwrBOVpgSYz-16" target="IaaIUEb9lgwrBOVpgSYz-13">
          <mxGeometry relative="1" as="geometry" />
        </mxCell>
        <mxCell id="IaaIUEb9lgwrBOVpgSYz-16" value="게시판 검색" style="rounded=1;whiteSpace=wrap;html=1;arcSize=40;fontColor=#000000;fillColor=#ffffc0;strokeColor=#ff0000;" vertex="1" parent="1">
          <mxGeometry x="305" y="820" width="100" height="30" as="geometry" />
        </mxCell>
        <mxCell id="IaaIUEb9lgwrBOVpgSYz-36" style="rounded=0;orthogonalLoop=1;jettySize=auto;html=1;entryX=0.5;entryY=1;entryDx=0;entryDy=0;dashed=1;exitX=1;exitY=0.5;exitDx=0;exitDy=0;" edge="1" parent="1" source="IaaIUEb9lgwrBOVpgSYz-17" target="IaaIUEb9lgwrBOVpgSYz-10">
          <mxGeometry relative="1" as="geometry" />
        </mxCell>
        <mxCell id="IaaIUEb9lgwrBOVpgSYz-47" style="rounded=0;orthogonalLoop=1;jettySize=auto;html=1;entryX=0;entryY=0.5;entryDx=0;entryDy=0;endArrow=none;endFill=0;" edge="1" parent="1" source="IaaIUEb9lgwrBOVpgSYz-17" target="IaaIUEb9lgwrBOVpgSYz-42">
          <mxGeometry relative="1" as="geometry">
            <Array as="points">
              <mxPoint x="430" y="850" />
            </Array>
          </mxGeometry>
        </mxCell>
        <mxCell id="IaaIUEb9lgwrBOVpgSYz-17" value="게시글 보기" style="rounded=1;whiteSpace=wrap;html=1;arcSize=40;fontColor=#000000;fillColor=#ffffc0;strokeColor=#ff0000;" vertex="1" parent="1">
          <mxGeometry x="125" y="910" width="110" height="30" as="geometry" />
        </mxCell>
        <mxCell id="IaaIUEb9lgwrBOVpgSYz-40" style="rounded=0;orthogonalLoop=1;jettySize=auto;html=1;entryX=1;entryY=0.5;entryDx=0;entryDy=0;dashed=1;" edge="1" parent="1" source="IaaIUEb9lgwrBOVpgSYz-18" target="IaaIUEb9lgwrBOVpgSYz-17">
          <mxGeometry relative="1" as="geometry" />
        </mxCell>
        <mxCell id="IaaIUEb9lgwrBOVpgSYz-48" style="rounded=0;orthogonalLoop=1;jettySize=auto;html=1;entryX=0;entryY=0.5;entryDx=0;entryDy=0;endArrow=none;endFill=0;exitX=1;exitY=0.5;exitDx=0;exitDy=0;" edge="1" parent="1" source="IaaIUEb9lgwrBOVpgSYz-18" target="IaaIUEb9lgwrBOVpgSYz-42">
          <mxGeometry relative="1" as="geometry" />
        </mxCell>
        <mxCell id="IaaIUEb9lgwrBOVpgSYz-18" value="게시글 쓰기, 수정, 삭제" style="rounded=1;whiteSpace=wrap;html=1;arcSize=40;fontColor=#000000;fillColor=#ffffc0;strokeColor=#ff0000;" vertex="1" parent="1">
          <mxGeometry x="300" y="890" width="130" height="40" as="geometry" />
        </mxCell>
        <mxCell id="IaaIUEb9lgwrBOVpgSYz-41" style="rounded=0;orthogonalLoop=1;jettySize=auto;html=1;entryX=1;entryY=0.5;entryDx=0;entryDy=0;dashed=1;" edge="1" parent="1" source="IaaIUEb9lgwrBOVpgSYz-19" target="IaaIUEb9lgwrBOVpgSYz-17">
          <mxGeometry relative="1" as="geometry" />
        </mxCell>
        <mxCell id="IaaIUEb9lgwrBOVpgSYz-49" style="rounded=0;orthogonalLoop=1;jettySize=auto;html=1;entryX=0;entryY=0.5;entryDx=0;entryDy=0;endArrow=none;endFill=0;exitX=1;exitY=0.5;exitDx=0;exitDy=0;" edge="1" parent="1" source="IaaIUEb9lgwrBOVpgSYz-19" target="IaaIUEb9lgwrBOVpgSYz-42">
          <mxGeometry relative="1" as="geometry" />
        </mxCell>
        <mxCell id="IaaIUEb9lgwrBOVpgSYz-19" value="댓글 쓰기, 수정, 삭제" style="rounded=1;whiteSpace=wrap;html=1;arcSize=40;fontColor=#000000;fillColor=#ffffc0;strokeColor=#ff0000;" vertex="1" parent="1">
          <mxGeometry x="300" y="950" width="120" height="40" as="geometry" />
        </mxCell>
        <mxCell id="IaaIUEb9lgwrBOVpgSYz-22" style="rounded=0;orthogonalLoop=1;jettySize=auto;html=1;strokeColor=default;endArrow=none;endFill=0;" edge="1" parent="1" source="IaaIUEb9lgwrBOVpgSYz-8">
          <mxGeometry relative="1" as="geometry">
            <mxPoint x="50" y="750" as="targetPoint" />
          </mxGeometry>
        </mxCell>
        <mxCell id="IaaIUEb9lgwrBOVpgSYz-28" style="rounded=0;orthogonalLoop=1;jettySize=auto;html=1;entryX=1;entryY=0.3333333333333333;entryDx=0;entryDy=0;entryPerimeter=0;endArrow=none;endFill=0;" edge="1" parent="1" source="IaaIUEb9lgwrBOVpgSYz-13" target="IaaIUEb9lgwrBOVpgSYz-1">
          <mxGeometry relative="1" as="geometry" />
        </mxCell>
        <mxCell id="IaaIUEb9lgwrBOVpgSYz-29" style="rounded=0;orthogonalLoop=1;jettySize=auto;html=1;entryX=1;entryY=0.3333333333333333;entryDx=0;entryDy=0;entryPerimeter=0;endArrow=none;endFill=0;" edge="1" parent="1" source="IaaIUEb9lgwrBOVpgSYz-17" target="IaaIUEb9lgwrBOVpgSYz-1">
          <mxGeometry relative="1" as="geometry" />
        </mxCell>
        <mxCell id="IaaIUEb9lgwrBOVpgSYz-31" style="rounded=0;orthogonalLoop=1;jettySize=auto;html=1;entryX=1;entryY=0.3333333333333333;entryDx=0;entryDy=0;entryPerimeter=0;endArrow=none;endFill=0;" edge="1" parent="1" source="IaaIUEb9lgwrBOVpgSYz-10" target="IaaIUEb9lgwrBOVpgSYz-1">
          <mxGeometry relative="1" as="geometry" />
        </mxCell>
        <mxCell id="IaaIUEb9lgwrBOVpgSYz-42" value="DB" style="html=1;dropTarget=0;whiteSpace=wrap;" vertex="1" parent="1">
          <mxGeometry x="630" y="710" width="100" height="100" as="geometry" />
        </mxCell>
      </root>
    </mxGraphModel>
  </diagram>
</mxfile>
